<svg height="1206" viewBox="0 0 1206 1206" width="1206" xmlns="http://www.w3.org/2000/svg"><g fill="none" stroke-width=".3"><path d="m0 228c100.78 38.29 200.59 80.05 301 118 2.52-26.84-.26-57.09-9.93-80.07s-15.21-44.16-24.39-66.61-15.42-43.68-24-66-16.36-44.01-24.61-66.39c-8.25-22.39-16.44-44.35-24.07-66.93h-194z" stroke="#e0e0e4"/><path d="m0 228v53c10.35 4.09 20.72 7.91 31.02 11.98 10.31 4.06 20.28 8.43 30.66 12.34s20.67 8.04 31.01 11.99c10.35 3.94 20.2 8.35 30.54 12.46s20.68 7.71 30.99 12.01c10.32 4.3 21.48 7.87 31.8 12.2 10.33 4.32 20.6 7.89 31 12 10.41 4.1 20.06 8.42 30.66 12.34s19.75 8.16 30.55 12.45c10.79 4.29 24.78 5.49 22.77 20.23s.89 28.41 0 43 .41 29.49 0 44 .19 28.58 0 43 .08 28.62 0 43 .04 28.62 0 43 .02 28.6 0 43 .01 28.52 0 43 .01 29.48 0 44c-8.06 5.28-15.21 11.38-22.25 18.75s-13.34 13.39-19 22c-5.67 8.6-11.06 16.51-15.52 26.48s-17.57.42-27.3-2.16c-9.73-2.57-20.93-6.78-30.95-10.04-10.03-3.27-21.46-7-31.65-10.36-10.19-3.35-20.12-7.28-30.4-10.6-10.29-3.32-20.59-6.77-30.95-10.05-10.37-3.27-20.69-7.6-31.06-10.94-10.36-3.35-20.65-6.54-30.94-10.05-10.3-3.52-20.85-6.8-30.98-11.03v53c75.79 24.19 150.98 51.17 227 75-.3 14.14-.13 33.49 1.33 46.67s7.43 25.97 10.59 37.41c3.17 11.43 16.2 22.97 6.85 30.69s-18.54 13.07-28 20-18.19 13.61-27.52 20.48c-9.34 6.87-18.89 13.94-28 21-9.11 7.07-16.7 15.07-25.5 22.5s-16.25 15.51-24 24c-7.75 8.5-15.41 16.6-22.52 25.48s-15.07 16.96-21.98 26.02c-6.91 9.05-13.83 18-21.02 26.98s-15.17 18.04-21.23 27.77h58c27.69-34.4 54.2-69.95 88.25-99.75s72.52-53.77 107.75-81.25c10.91 8.32 23.46 11.78 22 28s.68 34.36 0 51 .35 34.19 0 51 .27 34.14 0 51h46c-3.05-59.79 4.07-120.28 0-180-1.31-19.22-23.55-22.88-35.25-35.75s-22.35-24.96-29.5-41.5c-7.16-16.53-11.68-41.64-10.25-60.75s5.98-39.39 15.77-55.23 16.07-27.47 32.46-38.54 29.91-20.81 26.77-44.23 1.4-47.43 0-71 .6-47.35 0-71 .23-48.39 0-72 0-47.59 0-71-.24-47.96 0-71-.63-48.74 0-71-.43-44.18-7.98-63.02c-7.54-18.85-12.01-34.05-18.95-52.05-6.93-18.01-12.47-34.29-19.05-51.95-6.57-17.67-13.81-33.63-19.8-51.2-5.98-17.58-12.26-34.66-19-52-6.73-17.35-12.01-35.71-19.22-52.78h-50c7.63 22.58 15.82 44.54 24.07 66.93 8.25 22.38 16.03 44.07 24.61 66.39s14.82 43.55 24 66 14.72 43.63 24.39 66.61 12.45 53.23 9.93 80.07c-100.41-37.95-200.22-79.71-301-118z" stroke="#fdfdfd"/><path d="m348 1026c.01.06 1 0 1 0 4.77 4.61-.42 16.86 1 24s-.64 18.02 0 26-.29 17.64 0 26-.13 17.48 0 26c.13 8.53-.06 17.4 0 26s-.03 17.37 0 26-.02 17.36 0 26h109c.86-19.99-1.14-41.12 0-61 1.15-19.88-2.2-41.54 0-61s-5.17-42.2 1-60c5.23-15.09 20.98-19.7 32.7-28.3 11.71-8.61 19.8-23.38 34.3-26.7 15.47-5.5 33.89-.87 51-2s35.51.41 53 0 36.39 0 54 0c58.18 0 119.45-24.61 164.75-59.25 45.29-34.65 76.35-71.69 102.17-121.83 25.83-50.13 48.08-117.02 48.08-175.92v-37c0-44.83-13.52-93.58-28.31-133.69-14.78-40.12-35.6-67.57-60.69-101.31-9.21-10.57-19.99-20.99-30-31-54.93-46.94-124.25-84-198-84-4.41 0-9.34-.65-13-1-33.64 0-71.81 1.32-105 0s-72.46 4.8-103.02-2.98c-30.57-7.77-29.97-40.79-40.96-64.04-10.98-23.26-18.26-53.14-28.35-77.65-10.09-24.52-18.84-52.47-28.67-77.33h-120c7.21 17.07 12.49 35.43 19.22 52.78 6.74 17.34 13.02 34.42 19 52 5.99 17.57 13.23 33.53 19.8 51.2 6.58 17.66 12.12 33.94 19.05 51.95 6.94 18 11.41 33.2 18.95 52.05 7.55 18.84 8.61 40.76 7.98 63.02s.24 47.96 0 71 0 47.59 0 71-.23 47.39 0 71-.6 48.35 0 72-1.4 47.43 0 71-3.14 47.58 0 71-10.38 33.16-26.77 44.23-22.67 22.7-32.46 38.54-14.34 36.12-15.77 55.23 3.09 44.22 10.25 60.75c7.15 16.54 17.8 28.63 29.5 41.5s33.94 16.53 35.25 35.75m316-693c123.64 4.72 215.04 120.97 223 238 1.61 9 .86 20.09 0 29 0 61.21-25.4 126.97-63.75 173.25-38.36 46.28-92.94 83.75-153.25 83.75-20.3 1.96-42.91 1.64-64 1s-44.86 2.61-65-1c-19.26-1.31-23.55-22.2-32.75-35.25-9.2-13.04-20.66-25.34-34.25-33.75-20.54-12.71-11.77-37.65-13-60s.48-50.44 0-74 .05-49.97 0-74-.37-48.8 0-73-1-49.83 0-74-2.76-49.84 1-73c.8-14.65 14.16-23.67 27-27 17.78-4.61 39.04.19 58-1s39.91.02 59 0 39.82-1.6 58 1m-243 604c-5.66-3.26-16-12.36-22-11-13.69 5.88-25.16 17.04-39 23 3.21-15.7 6.73-31.29 10-47-11.17-10.61-24-19.12-34-31 15.42-2.6 31.08-4.3 47-5 5.38-14.65 10.88-31.64 19-44 1.91 10.4 7.86 15.75 10.77 26.23 2.91 10.47 6.99 19.8 19.45 18.55s21.91 3.79 33.78 4.22c-7.93 6.76-11.8 12.93-20.75 19.25-8.96 6.32-15.73 14.21-10.92 25.42 4.8 11.21 2.73 22.31 7.67 33.33-7.66-2.51-13.96-8.1-21-12z" stroke="#1775fc"/><path d="m670 222c4.41 0 9.34.65 13 1 73.75 0 143.07 37.06 198 84 10.63 9.09 21.77 19.93 30 31 25.09 33.74 45.91 61.19 60.69 101.31 14.79 40.11 28.31 88.86 28.31 133.69 1.12 11.63 1.12 25.44 0 37 0 58.9-22.25 125.79-48.08 175.92-25.82 50.14-56.88 87.18-102.17 121.83-45.3 34.64-106.57 59.25-164.75 59.25-25.24 2.44-53.18-.97-79 1s-54.04-4.71-79 1c-14.5 3.32-22.59 18.09-34.3 26.7-11.72 8.6-27.47 13.21-32.7 28.3-3.94 19.35 1.8 40.17 0 60s.94 40.93 0 61 .7 40.86 0 61h46c.14-17.14-.19-34.92 0-52s-.37-35.15 0-52-.79-35.71 0-52 17.03-13.18 26.08-25.92 27.4-9.06 42.92-9.08 35.71-.13 52 0 35.62-.37 52 0 32.68-1.42 48-4c15.32-2.57 28.15-6.38 43-10 5.05 68.39 10.83 136.62 16 205h47c-4.5-74.95-12.37-149.07-17-224 22.86-9.07 43.73-23.98 64-38 91.74 88.8 186.62 174.34 279 262h47v-23c-97.16-89.33-193.08-180.39-290-270 65.52-68.18 108.87-154.34 124-246 55.7 16.04 110.24 35.65 166 52v-52c-9.37-1.93-18.87-5.28-28.02-7.98-9.16-2.69-17.93-6.4-27.05-8.95-9.13-2.54-18.01-6.3-27-9-9-2.69-18.57-5.43-27.15-8.85-8.59-3.42-19.52-4.36-27.46-8.54s-22.6-1.66-22.54-11.9.43-24.97.22-35.78-.87-23.43-2-34-3.14-21.06-4.78-31.22c-1.63-10.16-4.01-20.16-6.15-29.85-2.13-9.7-5.35-18.75-8-28-2.65-9.26-5.84-18.17-9.04-26.95-3.21-8.79-7.33-16.69-10.95-25.06-3.63-8.36-7.79-16.14-12-24-4.22-7.85-8.69-15.27-13.33-22.67-4.65-7.39-9.29-14.6-14.5-21.5s-9.9-13.98-15.5-20.5-10.99-12.86-17-19c-6-6.14-11.82-12.05-18-18s-12.63-11.14-19-17-13.96-9.91-20.83-15.17-13.61-10.43-21.17-14.83c-7.55-4.41-15.33-8.4-23-13-7.67-4.61-16.64-7.35-24.77-11.22-8.14-3.88-17.21-7.69-25.98-10.03v-194h-47v180c-15.47-1.64-29.29-3.59-45-5-15.71-1.4-32.64-1.15-49-1-16.35.15-33.48-.38-50 0s-33.42-.87-50 0-33.42-1.93-50 0-18.46-14.37-22.98-27.02c-4.51-12.65-9.04-23.94-13.8-36.2-4.75-12.27-8.28-24.62-13.15-36.85-4.87-12.24-9.07-23.88-13.84-36.16s-8.8-25.36-13.23-37.77h-49c9.83 24.86 18.58 52.81 28.67 77.33 10.09 24.51 17.37 54.39 28.35 77.65 10.99 23.25 10.39 56.27 40.96 64.04 30.56 7.78 69.83 1.66 103.02 2.98s71.36 0 105 0z" stroke="#fdfdfd"/><path d="m734 0h-321c4.43 12.41 8.46 25.49 13.23 37.77s8.97 23.92 13.84 36.16c4.87 12.23 8.4 24.58 13.15 36.85 4.76 12.26 9.29 23.55 13.8 36.2 4.52 12.65 6.4 28.95 22.98 27.02s33.42.87 50 0 33.48.38 50 0 33.65.15 50 0c16.36-.15 33.29-.4 49 1 15.71 1.41 29.53 3.36 45 5z" stroke="#dfe0e4"/><path d="m1206 667v-286c-53.48-25.48-97.64-60.38-151.08-86.92-53.45-26.54-101.5-74.9-98.92-139.08s44.96-107.15 83-155h-258v194c8.77 2.34 17.84 6.15 25.98 10.03 8.13 3.87 17.1 6.61 24.77 11.22 7.67 4.6 15.45 8.59 23 13 7.56 4.4 14.3 9.57 21.17 14.83s14.46 9.31 20.83 15.17 12.82 11.05 19 17 12 11.86 18 18c6.01 6.14 11.4 12.48 17 19s10.29 13.6 15.5 20.5 9.85 14.11 14.5 21.5c4.64 7.4 9.11 14.82 13.33 22.67 4.21 7.86 8.37 15.64 12 24 3.62 8.37 7.74 16.27 10.95 25.06 3.2 8.78 6.39 17.69 9.04 26.95 2.65 9.25 5.87 18.3 8 28 2.14 9.69 4.52 19.69 6.15 29.85 1.64 10.16 3.65 20.65 4.78 31.22s1.79 23.19 2 34-.16 25.54-.22 35.78 14.6 7.72 22.54 11.9 18.87 5.12 27.46 8.54c8.58 3.42 18.15 6.16 27.15 8.85 8.99 2.7 17.87 6.46 27 9 9.12 2.55 17.89 6.26 27.05 8.95 9.15 2.7 18.65 6.05 28.02 7.98z" stroke="#9cce75"/><path d="m1206 381v-56c-33.83-18.51-66.24-36.1-99.25-56.75-33-20.66-67.53-31.54-91.05-65.95-23.53-34.4-10.27-86.64 15.05-116.55 25.33-29.9 44.63-57.23 71.25-85.75h-63c-38.04 47.85-80.42 90.82-83 155s45.47 112.54 98.92 139.08c53.44 26.54 97.6 61.44 151.08 86.92z" stroke="#fdfdfd"/><path d="m1206 325v-325h-104c-26.62 28.52-45.92 55.85-71.25 85.75-25.32 29.91-38.58 82.15-15.05 116.55 23.52 34.41 58.05 45.29 91.05 65.95 33.01 20.65 65.42 38.24 99.25 56.75z" stroke="#9cce75"/><path d="m683 223c-3.66-.35-8.59-1-13-1 3.66.35 8.59 1 13 1z" stroke="#92c0fb"/><path d="m0 749c10.13 4.23 20.68 7.51 30.98 11.03 10.29 3.51 20.58 6.7 30.94 10.05 10.37 3.34 20.69 7.67 31.06 10.94 10.36 3.28 20.66 6.73 30.95 10.05 10.28 3.32 20.21 7.25 30.4 10.6 10.19 3.36 21.62 7.09 31.65 10.36 10.02 3.26 21.22 7.47 30.95 10.04 9.73 2.58 22.84 12.13 27.3 2.16s9.85-17.88 15.52-26.48c5.66-8.61 11.96-14.63 19-22s14.19-13.47 22.25-18.75c.01-14.52-.01-29.52 0-44s-.02-28.6 0-43-.04-28.62 0-43-.08-28.62 0-43-.19-28.58 0-43-.41-28.49 0-43-.89-29.41 0-44-2.01-28.26 0-43-11.98-15.94-22.77-20.23c-10.8-4.29-19.95-8.53-30.55-12.45s-20.25-8.24-30.66-12.34c-10.4-4.11-20.67-7.68-31-12-10.32-4.33-21.48-7.9-31.8-12.2-10.31-4.3-20.65-7.9-30.99-12.01s-20.19-8.52-30.54-12.46c-10.34-3.95-20.63-8.08-31.01-11.99s-20.35-8.28-30.66-12.34c-10.3-4.07-20.67-7.89-31.02-11.98z" stroke="#dfe0e4"/><path d="m911 338c-8.23-11.07-19.37-21.91-30-31 10.01 10.01 20.79 20.43 30 31z" stroke="#94c2fc"/><path d="m489 333c19.01-2.53 38.78.98 58 0s38.63.07 58 0 39.59-.74 59 0c-18.18-2.6-38.91-1.02-58-1s-40.04-1.19-59 0-40.22-3.61-58 1z" stroke="#7db1fa"/><path d="m462 360c-1.57 29 .54 59.02 0 88s-.13 59.28 0 88-.9 59.96 0 88-2.26 61.49 0 88-10.03 58.95 12 76c13.59 8.41 25.05 20.71 34.25 33.75 9.2 13.05 13.49 33.94 32.75 35.25 42.55 2.89 86.34 0 129 0 60.31 0 114.89-37.47 153.25-83.75 38.35-46.28 63.75-112.04 63.75-173.25 0-9.59.65-19.43 0-29-7.96-117.03-99.36-233.28-223-238-19.41-.74-39.63-.07-59 0s-38.78-.98-58 0-38.99-2.53-58 0c-12.84 3.33-26.2 12.35-27 27m42 20c14-.06 28 .08 42 0s29.11.15 43 0 28.43.33 42 0 28.83.17 41.22 1.78c12.39 1.6 24.09 4.06 34.85 8.15 10.77 4.08 19.51 7.68 29.01 12.99 9.49 5.31 17.41 10.79 25.67 17.33 8.26 6.53 13.95 13.06 21.5 20.5 7.55 7.45 12.88 15.38 19.05 23.95 6.18 8.56 10.87 17.56 15.62 27.38 4.76 9.81 8.86 19.04 12.01 29.99s7.01 22.32 8.84 34.16 2.14 27.25 2.23 39.77-2.07 27.23-3.98 39.02c-1.91 11.8-5.17 23.5-8.8 34.2-3.63 10.71-7.64 19.78-12.52 29.48-4.89 9.69-9.65 18.71-15.62 27.38s-11.82 16.41-18.85 24.15-13.39 13.96-21.48 20.52c-8.08 6.57-15.59 12.84-25 18-9.4 5.17-18.01 9.31-28.83 13.17-10.81 3.87-23.47 6.18-35.92 7.08s-28.9 1.34-42 1-29.21.39-42 0-29.87 3.69-35.92-7.08c-6.06-10.76-10.15-15.23-17.83-24.17-7.69-8.93-12.97-13.17-22.33-20.67s-5.51-24.17-5.92-37.08.18-28.38 0-42 .08-29.07 0-43 .04-27.91 0-42 .02-28.81 0-43 .01-28.8 0-43 0-27.78 0-42z" stroke="#fdfdfd"/><path d="m474 788c-22.03-17.05-9.74-49.49-12-76s.9-59.96 0-88 .13-59.28 0-88-.54-59.02 0-88-1.57-59 0-88c-3.76 23.16 0 48.83-1 73s.37 49.8 0 74-.05 48.97 0 73-.48 50.44 0 74-1.23 51.65 0 74-7.54 47.29 13 60z" stroke="#a1c7fd"/><path d="m504 380v86c0 14.22-.01 27.8 0 42s-.02 28.81 0 43-.04 28.91 0 43-.08 28.07 0 42-.18 29.38 0 43-.41 29.09 0 42-3.44 29.58 5.92 37.08 14.64 11.74 22.33 20.67c7.68 8.94 11.77 13.41 17.83 24.17 6.05 10.77 23.13 6.69 35.92 7.08s28.9-.34 42 0 29.55-.1 42-1 25.11-3.21 35.92-7.08c10.82-3.86 19.43-8 28.83-13.17 9.41-5.16 16.92-11.43 25-18 8.09-6.56 14.45-12.78 21.48-20.52s12.88-15.48 18.85-24.15 10.73-17.69 15.62-27.38c4.88-9.7 8.89-18.77 12.52-29.48 3.63-10.7 6.89-22.4 8.8-34.2 1.91-11.79 4.07-26.5 3.98-39.02s-.4-27.93-2.23-39.77-5.69-23.21-8.84-34.16-7.25-20.18-12.01-29.99c-4.75-9.82-9.44-18.82-15.62-27.38-6.17-8.57-11.5-16.5-19.05-23.95-7.55-7.44-13.24-13.97-21.5-20.5-8.26-6.54-16.18-12.02-25.67-17.33-9.5-5.31-18.24-8.91-29.01-12.99-10.76-4.09-22.46-6.55-34.85-8.15-12.39-1.61-27.65-2.11-41.22-1.78s-28.11-.15-42 0-29-.08-43 0-28-.06-42 0z" stroke="#dfe0e4"/><path d="m887 600c.86-8.91 1.61-20 0-29 .65 9.57 0 19.41 0 29z" stroke="#9fc4fc"/><path d="m1000 610c1.12-11.56 1.12-25.37 0-37z" stroke="#89bafc"/><path d="m1206 1183v-464c-55.76-16.35-110.3-35.96-166-52-15.13 91.66-58.48 177.82-124 246 96.92 89.61 192.84 180.67 290 270z" stroke="#e0e0e4"/><path d="m0 1206h26c6.06-9.73 14.04-18.79 21.23-27.77s14.11-17.93 21.02-26.98c6.91-9.06 14.87-17.14 21.98-26.02s14.77-16.98 22.52-25.48c7.75-8.49 15.2-16.57 24-24s16.39-15.43 25.5-22.5c9.11-7.06 18.66-14.13 28-21 9.33-6.87 18.06-13.55 27.52-20.48s18.65-12.28 28-20-3.68-19.26-6.85-30.69c-3.16-11.44-9.13-24.23-10.59-37.41s-1.63-32.53-1.33-46.67c-76.02-23.83-151.21-50.81-227-75z" stroke="#9bcd75"/><path d="m399 926c6.03-2.59 16.22 6.87 22 11 7.04 3.9 13.34 9.49 21 12-4.94-11.02-2.87-22.12-7.67-33.33-4.81-11.21 1.96-19.1 10.92-25.42 8.95-6.32 12.82-12.49 20.75-19.25-11.87-.43-21.32-5.47-33.78-4.22s-16.54-8.08-19.45-18.55c-2.91-10.48-8.86-15.83-10.77-26.23-8.12 12.36-13.62 29.35-19 44-15.92.7-31.58 2.4-47 5 10 11.88 22.83 20.39 34 31-3.27 15.71-6.79 31.3-10 47 13.84-5.96 25.31-17.12 39-23z" stroke="#fbfcfd"/><path d="m670 857c-42.66 0-86.45 2.89-129 0 20.14 3.61 43.91.36 65 1s43.7.96 64-1z" stroke="#c9defb"/><path d="m399 926c6-1.36 16.34 7.74 22 11-5.78-4.13-15.97-13.59-22-11z" stroke="#9bc5fd"/><path d="m833 1206h326c-92.38-87.66-187.26-173.2-279-262-20.27 14.02-41.14 28.93-64 38 4.63 74.93 12.5 149.05 17 224z" stroke="#e0e0e4"/><path d="m527 969c24.96-5.71 53.18.97 79-1s53.76 1.44 79-1c-17.61 0-36.51-.41-54 0s-35.89-1.13-53 0-35.53-3.5-51 2z" stroke="#7bb3fc"/><path d="m506 1206h280c-5.17-68.38-10.95-136.61-16-205-14.85 3.62-27.68 7.43-43 10-15.32 2.58-31.62 4.37-48 4s-35.71.13-52 0-36.48-.02-52 0-33.87-3.66-42.92 9.08-25.29 9.63-26.08 25.92.37 35.15 0 52 .19 34.92 0 52 .14 34.86 0 52z" stroke="#9cce76"/><path d="m459 1206h1c.7-20.14-.94-40.93 0-61s-1.8-41.17 0-61-3.94-40.65 0-60c-6.17 17.8 1.2 40.54-1 60s1.15 41.12 0 61c-1.14 19.88.86 41.01 0 61z" stroke="#d1e5fe"/><path d="m84 1206h218c.27-16.86-.35-34.19 0-51s-.68-34.36 0-51-1.46-34.78 0-51-11.09-19.68-22-28c-35.23 27.48-73.7 51.45-107.75 81.25s-60.56 65.35-88.25 99.75z" stroke="#9cce76"/><path d="m348 1206h1c-1.05-29.91 1.4-60.13 0-90s2.69-60.24 0-90c0 0-.99.06-1 0 4.07 59.72-3.05 120.21 0 180z" stroke="#95befd"/><path d="m349 1206h1c-.02-8.64.03-17.37 0-26s.06-17.4 0-26 .13-17.47 0-26c-.13-8.52.29-17.64 0-26s.64-18.02 0-26 1.42-18.86 0-26 3.77-19.39-1-24c2.69 29.76-1.4 60.13 0 90s-1.05 60.09 0 90z" stroke="#0061fc"/></g><path d="m0 228c100.78 38.29 200.59 80.05 301 118 2.52-26.84-.26-57.09-9.93-80.07s-15.21-44.16-24.39-66.61-15.42-43.68-24-66-16.36-44.01-24.61-66.39c-8.25-22.39-16.44-44.35-24.07-66.93h-194z" fill="#e0e0e4"/><path d="m0 228v53c10.35 4.09 20.72 7.91 31.02 11.98 10.31 4.06 20.28 8.43 30.66 12.34s20.67 8.04 31.01 11.99c10.35 3.94 20.2 8.35 30.54 12.46s20.68 7.71 30.99 12.01c10.32 4.3 21.48 7.87 31.8 12.2 10.33 4.32 20.6 7.89 31 12 10.41 4.1 20.06 8.42 30.66 12.34s19.75 8.16 30.55 12.45c10.79 4.29 24.78 5.49 22.77 20.23s.89 28.41 0 43 .41 29.49 0 44 .19 28.58 0 43 .08 28.62 0 43 .04 28.62 0 43 .02 28.6 0 43 .01 28.52 0 43 .01 29.48 0 44c-8.06 5.28-15.21 11.38-22.25 18.75s-13.34 13.39-19 22c-5.67 8.6-11.06 16.51-15.52 26.48s-17.57.42-27.3-2.16c-9.73-2.57-20.93-6.78-30.95-10.04-10.03-3.27-21.46-7-31.65-10.36-10.19-3.35-20.12-7.28-30.4-10.6-10.29-3.32-20.59-6.77-30.95-10.05-10.37-3.27-20.69-7.6-31.06-10.94-10.36-3.35-20.65-6.54-30.94-10.05-10.3-3.52-20.85-6.8-30.98-11.03v53c75.79 24.19 150.98 51.17 227 75-.3 14.14-.13 33.49 1.33 46.67s7.43 25.97 10.59 37.41c3.17 11.43 16.2 22.97 6.85 30.69s-18.54 13.07-28 20-18.19 13.61-27.52 20.48c-9.34 6.87-18.89 13.94-28 21-9.11 7.07-16.7 15.07-25.5 22.5s-16.25 15.51-24 24c-7.75 8.5-15.41 16.6-22.52 25.48s-15.07 16.96-21.98 26.02c-6.91 9.05-13.83 18-21.02 26.98s-15.17 18.04-21.23 27.77h58c27.69-34.4 54.2-69.95 88.25-99.75s72.52-53.77 107.75-81.25c10.91 8.32 23.46 11.78 22 28s.68 34.36 0 51 .35 34.19 0 51 .27 34.14 0 51h46c-3.05-59.79 4.07-120.28 0-180-1.31-19.22-23.55-22.88-35.25-35.75s-22.35-24.96-29.5-41.5c-7.16-16.53-11.68-41.64-10.25-60.75s5.98-39.39 15.77-55.23 16.07-27.47 32.46-38.54 29.91-20.81 26.77-44.23 1.4-47.43 0-71 .6-47.35 0-71 .23-48.39 0-72 0-47.59 0-71-.24-47.96 0-71-.63-48.74 0-71-.43-44.18-7.98-63.02c-7.54-18.85-12.01-34.05-18.95-52.05-6.93-18.01-12.47-34.29-19.05-51.95-6.57-17.67-13.81-33.63-19.8-51.2-5.98-17.58-12.26-34.66-19-52-6.73-17.35-12.01-35.71-19.22-52.78h-50c7.63 22.58 15.82 44.54 24.07 66.93 8.25 22.38 16.03 44.07 24.61 66.39s14.82 43.55 24 66 14.72 43.63 24.39 66.61 12.45 53.23 9.93 80.07c-100.41-37.95-200.22-79.71-301-118" fill="none"/><path d="m348 1026c.01.06 1 0 1 0 4.77 4.61-.42 16.86 1 24s-.64 18.02 0 26-.29 17.64 0 26-.13 17.48 0 26c.13 8.53-.06 17.4 0 26s-.03 17.37 0 26-.02 17.36 0 26h109c.86-19.99-1.14-41.12 0-61 1.15-19.88-2.2-41.54 0-61s-5.17-42.2 1-60c5.23-15.09 20.98-19.7 32.7-28.3 11.71-8.61 19.8-23.38 34.3-26.7 15.47-5.5 33.89-.87 51-2s35.51.41 53 0 36.39 0 54 0c58.18 0 119.45-24.61 164.75-59.25 45.29-34.65 76.35-71.69 102.17-121.83 25.83-50.13 48.08-117.02 48.08-175.92v-37c0-44.83-13.52-93.58-28.31-133.69-14.78-40.12-35.6-67.57-60.69-101.31-9.21-10.57-19.99-20.99-30-31-54.93-46.94-124.25-84-198-84-4.41 0-9.34-.65-13-1-33.64 0-71.81 1.32-105 0s-72.46 4.8-103.02-2.98c-30.57-7.77-29.97-40.79-40.96-64.04-10.98-23.26-18.26-53.14-28.35-77.65-10.09-24.52-18.84-52.47-28.67-77.33h-120c7.21 17.07 12.49 35.43 19.22 52.78 6.74 17.34 13.02 34.42 19 52 5.99 17.57 13.23 33.53 19.8 51.2 6.58 17.66 12.12 33.94 19.05 51.95 6.94 18 11.41 33.2 18.95 52.05 7.55 18.84 8.61 40.76 7.98 63.02s.24 47.96 0 71 0 47.59 0 71-.23 47.39 0 71-.6 48.35 0 72-1.4 47.43 0 71-3.14 47.58 0 71-10.38 33.16-26.77 44.23-22.67 22.7-32.46 38.54-14.34 36.12-15.77 55.23 3.09 44.22 10.25 60.75c7.15 16.54 17.8 28.63 29.5 41.5s33.94 16.53 35.25 35.75m316-693c123.64 4.72 215.04 120.97 223 238 1.61 9 .86 20.09 0 29 0 61.21-25.4 126.97-63.75 173.25-38.36 46.28-92.94 83.75-153.25 83.75-20.3 1.96-42.91 1.64-64 1s-44.86 2.61-65-1c-19.26-1.31-23.55-22.2-32.75-35.25-9.2-13.04-20.66-25.34-34.25-33.75-20.54-12.71-11.77-37.65-13-60s.48-50.44 0-74 .05-49.97 0-74-.37-48.8 0-73-1-49.83 0-74-2.76-49.84 1-73c.8-14.65 14.16-23.67 27-27 17.78-4.61 39.04.19 58-1s39.91.02 59 0z" fill="#1775fc"/><path d="m306 222c4.41 0 9.34.65 13 1 73.75 0 143.07 37.06 198 84 10.63 9.09 21.77 19.93 30 31 25.09 33.74 45.91 61.19 60.69 101.31 14.79 40.11 28.31 88.86 28.31 133.69 1.12 11.63 1.12 25.44 0 37 0 58.9-22.25 125.79-48.08 175.92-25.82 50.14-56.88 87.18-102.17 121.83-45.3 34.64-106.57 59.25-164.75 59.25-25.24 2.44-53.18-.97-79 1s-54.04-4.71-79 1c-14.5 3.32-22.59 18.09-34.3 26.7-11.72 8.6-27.47 13.21-32.7 28.3-3.94 19.35 1.8 40.17 0 60s.94 40.93 0 61 .7 40.86 0 61h46c.14-17.14-.19-34.92 0-52s-.37-35.15 0-52-.79-35.71 0-52 17.03-13.18 26.08-25.92 27.4-9.06 42.92-9.08 35.71-.13 52 0 35.62-.37 52 0 32.68-1.42 48-4c15.32-2.57 28.15-6.38 43-10 5.05 68.39 10.83 136.62 16 205h47c-4.5-74.95-12.37-149.07-17-224 22.86-9.07 43.73-23.98 64-38 91.74 88.8 186.62 174.34 279 262h47v-23c-97.16-89.33-193.08-180.39-290-270 65.52-68.18 108.87-154.34 124-246 55.7 16.04 110.24 35.65 166 52v-52c-9.37-1.93-18.87-5.28-28.02-7.98-9.16-2.69-17.93-6.4-27.05-8.95-9.13-2.54-18.01-6.3-27-9-9-2.69-18.57-5.43-27.15-8.85-8.59-3.42-19.52-4.36-27.46-8.54s-22.6-1.66-22.54-11.9.43-24.97.22-35.78-.87-23.43-2-34-3.14-21.06-4.78-31.22c-1.63-10.16-4.01-20.16-6.15-29.85-2.13-9.7-5.35-18.75-8-28-2.65-9.26-5.84-18.17-9.04-26.95-3.21-8.79-7.33-16.69-10.95-25.06-3.63-8.36-7.79-16.14-12-24-4.22-7.85-8.69-15.27-13.33-22.67-4.65-7.39-9.29-14.6-14.5-21.5s-9.9-13.98-15.5-20.5-10.99-12.86-17-19c-6-6.14-11.82-12.05-18-18s-12.63-11.14-19-17-13.96-9.91-20.83-15.17-13.61-10.43-21.17-14.83c-7.55-4.41-15.33-8.4-23-13-7.67-4.61-16.64-7.35-24.77-11.22-8.14-3.88-17.21-7.69-25.98-10.03v-194h-47v180c-15.47-1.64-29.29-3.59-45-5-15.71-1.4-32.64-1.15-49-1-16.35.15-33.48-.38-50 0s-33.42-.87-50 0-33.42-1.93-50 0-18.46-14.37-22.98-27.02c-4.51-12.65-9.04-23.94-13.8-36.2-4.75-12.27-8.28-24.62-13.15-36.85-4.87-12.24-9.07-23.88-13.84-36.16s-8.8-25.36-13.23-37.77h-49c9.83 24.86 18.58 52.81 28.67 77.33 10.09 24.51 17.37 54.39 28.35 77.65 10.99 23.25 10.39 56.27 40.96 64.04 30.56 7.78 69.83 1.66 103.02 2.98s71.36 0 105 0" fill="none"/><path d="m734 0h-321c4.43 12.41 8.46 25.49 13.23 37.77s8.97 23.92 13.84 36.16c4.87 12.23 8.4 24.58 13.15 36.85 4.76 12.26 9.29 23.55 13.8 36.2 4.52 12.65 6.4 28.95 22.98 27.02s33.42.87 50 0 33.48.38 50 0 33.65.15 50 0c16.36-.15 33.29-.4 49 1 15.71 1.41 29.53 3.36 45 5z" fill="#dfe0e4"/><path d="m1206 667v-286c-53.48-25.48-97.64-60.38-151.08-86.92-53.45-26.54-101.5-74.9-98.92-139.08s44.96-107.15 83-155h-258v194c8.77 2.34 17.84 6.15 25.98 10.03 8.13 3.87 17.1 6.61 24.77 11.22 7.67 4.6 15.45 8.59 23 13 7.56 4.4 14.3 9.57 21.17 14.83s14.46 9.31 20.83 15.17 12.82 11.05 19 17 12 11.86 18 18c6.01 6.14 11.4 12.48 17 19s10.29 13.6 15.5 20.5 9.85 14.11 14.5 21.5c4.64 7.4 9.11 14.82 13.33 22.67 4.21 7.86 8.37 15.64 12 24 3.62 8.37 7.74 16.27 10.95 25.06 3.2 8.78 6.39 17.69 9.04 26.95 2.65 9.25 5.87 18.3 8 28 2.14 9.69 4.52 19.69 6.15 29.85 1.64 10.16 3.65 20.65 4.78 31.22s1.79 23.19 2 34-.16 25.54-.22 35.78 14.6 7.72 22.54 11.9 18.87 5.12 27.46 8.54c8.58 3.42 18.15 6.16 27.15 8.85 8.99 2.7 17.87 6.46 27 9 9.12 2.55 17.89 6.26 27.05 8.95 9.15 2.7 18.65 6.05 28.02 7.98" fill="#9cce75"/><path d="m1206 381v-56c-33.83-18.51-66.24-36.1-99.25-56.75-33-20.66-67.53-31.54-91.05-65.95-23.53-34.4-10.27-86.64 15.05-116.55 25.33-29.9 44.63-57.23 71.25-85.75h-63c-38.04 47.85-80.42 90.82-83 155s45.47 112.54 98.92 139.08c53.44 26.54 97.6 61.44 151.08 86.92" fill="none"/><path d="m1206 325v-325h-104c-26.62 28.52-45.92 55.85-71.25 85.75-25.32 29.91-38.58 82.15-15.05 116.55 23.52 34.41 58.05 45.29 91.05 65.95 33.01 20.65 65.42 38.24 99.25 56.75" fill="#9cce75"/><path d="m683 223c-3.66-.35-8.59-1-13-1 3.66.35 8.59 1 13 1" fill="#92c0fb"/><path d="m0 749c10.13 4.23 20.68 7.51 30.98 11.03 10.29 3.51 20.58 6.7 30.94 10.05 10.37 3.34 20.69 7.67 31.06 10.94 10.36 3.28 20.66 6.73 30.95 10.05 10.28 3.32 20.21 7.25 30.4 10.6 10.19 3.36 21.62 7.09 31.65 10.36 10.02 3.26 21.22 7.47 30.95 10.04 9.73 2.58 22.84 12.13 27.3 2.16s9.85-17.88 15.52-26.48c5.66-8.61 11.96-14.63 19-22s14.19-13.47 22.25-18.75c.01-14.52-.01-29.52 0-44s-.02-28.6 0-43-.04-28.62 0-43-.08-28.62 0-43-.19-28.58 0-43-.41-28.49 0-43-.89-29.41 0-44-2.01-28.26 0-43-11.98-15.94-22.77-20.23c-10.8-4.29-19.95-8.53-30.55-12.45s-20.25-8.24-30.66-12.34c-10.4-4.11-20.67-7.68-31-12-10.32-4.33-21.48-7.9-31.8-12.2-10.31-4.3-20.65-7.9-30.99-12.01s-20.19-8.52-30.54-12.46c-10.34-3.95-20.63-8.08-31.01-11.99s-20.35-8.28-30.66-12.34c-10.3-4.07-20.67-7.89-31.02-11.98z" fill="#dfe0e4"/><path d="m911 338c-8.23-11.07-19.37-21.91-30-31 10.01 10.01 20.79 20.43 30 31" fill="#94c2fc"/><path d="m489 333c19.01-2.53 38.78.98 58 0s38.63.07 58 0 39.59-.74 59 0c-18.18-2.6-38.91-1.02-58-1s-40.04-1.19-59 0-40.22-3.61-58 1" fill="#7db1fa"/><path d="m462 360c-1.57 29 .54 59.02 0 88s-.13 59.28 0 88-.9 59.96 0 88-2.26 61.49 0 88-10.03 58.95 12 76c13.59 8.41 25.05 20.71 34.25 33.75 9.2 13.05 13.49 33.94 32.75 35.25 42.55 2.89 86.34 0 129 0 60.31 0 114.89-37.47 153.25-83.75 38.35-46.28 63.75-112.04 63.75-173.25 0-9.59.65-19.43 0-29-7.96-117.03-99.36-233.28-223-238-19.41-.74-39.63-.07-59 0s-38.78-.98-58 0-38.99-2.53-58 0c-12.84 3.33-26.2 12.35-27 27m42 20c14-.06 28 .08 42 0s29.11.15 43 0 28.43.33 42 0 28.83.17 41.22 1.78c12.39 1.6 24.09 4.06 34.85 8.15 10.77 4.08 19.51 7.68 29.01 12.99 9.49 5.31 17.41 10.79 25.67 17.33 8.26 6.53 13.95 13.06 21.5 20.5 7.55 7.45 12.88 15.38 19.05 23.95 6.18 8.56 10.87 17.56 15.62 27.38 4.76 9.81 8.86 19.04 12.01 29.99s7.01 22.32 8.84 34.16 2.14 27.25 2.23 39.77-2.07 27.23-3.98 39.02c-1.91 11.8-5.17 23.5-8.8 34.2-3.63 10.71-7.64 19.78-12.52 29.48-4.89 9.69-9.65 18.71-15.62 27.38s-11.82 16.41-18.85 24.15-13.39 13.96-21.48 20.52c-8.08 6.57-15.59 12.84-25 18-9.4 5.17-18.01 9.31-28.83 13.17-10.81 3.87-23.47 6.18-35.92 7.08s-28.9 1.34-42 1-29.21.39-42 0-29.87 3.69-35.92-7.08c-6.06-10.76-10.15-15.23-17.83-24.17-7.69-8.93-12.97-13.17-22.33-20.67s-5.51-24.17-5.92-37.08.18-28.38 0-42 .08-29.07 0-43 .04-27.91 0-42 .02-28.81 0-43 .01-28.8 0-43 0-27.78 0-42z" fill="none"/><path d="m474 788c-22.03-17.05-9.74-49.49-12-76s.9-59.96 0-88 .13-59.28 0-88-.54-59.02 0-88-1.57-59 0-88c-3.76 23.16 0 48.83-1 73s.37 49.8 0 74-.05 48.97 0 73-.48 50.44 0 74-1.23 51.65 0 74-7.54 47.29 13 60" fill="#a1c7fd"/><path d="m546 380c14-.08 29.11.15 43 0s28.43.33 42 0 28.83.17 41.22 1.78c12.39 1.6 24.09 4.06 34.85 8.15 10.77 4.08 19.51 7.68 29.01 12.99 9.49 5.31 17.41 10.79 25.67 17.33 8.26 6.53 13.95 13.06 21.5 20.5 7.55 7.45 12.88 15.38 19.05 23.95 6.18 8.56 10.87 17.56 15.62 27.38 4.76 9.81 8.86 19.04 12.01 29.99s7.01 22.32 8.84 34.16 2.14 27.25 2.23 39.77-2.07 27.23-3.98 39.02c-1.91 11.8-5.17 23.5-8.8 34.2-3.63 10.71-7.64 19.78-12.52 29.48-4.89 9.69-9.65 18.71-15.62 27.38s-11.82 16.41-18.85 24.15-13.39 13.96-21.48 20.52c-8.08 6.57-15.59 12.84-25 18-9.4 5.17-18.01 9.31-28.83 13.17-10.81 3.87-23.47 6.18-35.92 7.08s-28.9 1.34-42 1-29.21.39-42 0-29.87 3.69-35.92-7.08c-6.06-10.76-10.15-15.23-17.83-24.17-7.69-8.93-12.97-13.17-22.33-20.67s-5.51-24.17-5.92-37.08.18-28.38 0-42 .08-29.07 0-43 .04-27.91 0-42 .02-28.81 0-43 .01-28.8 0-43 0-27.78 0-42v-86c14-.06 28 .08 42 0" fill="#dfe0e4"/><path d="m887 600c.86-8.91 1.61-20 0-29 .65 9.57 0 19.41 0 29" fill="#9fc4fc"/><path d="m1000 610c1.12-11.56 1.12-25.37 0-37z" fill="#89bafc"/><path d="m1206 1183v-464c-55.76-16.35-110.3-35.96-166-52-15.13 91.66-58.48 177.82-124 246 96.92 89.61 192.84 180.67 290 270" fill="#e0e0e4"/><path d="m0 1206h26c6.06-9.73 14.04-18.79 21.23-27.77s14.11-17.93 21.02-26.98c6.91-9.06 14.87-17.14 21.98-26.02s14.77-16.98 22.52-25.48c7.75-8.49 15.2-16.57 24-24s16.39-15.43 25.5-22.5c9.11-7.06 18.66-14.13 28-21 9.33-6.87 18.06-13.55 27.52-20.48s18.65-12.28 28-20-3.68-19.26-6.85-30.69c-3.16-11.44-9.13-24.23-10.59-37.41s-1.63-32.53-1.33-46.67c-76.02-23.83-151.21-50.81-227-75z" fill="#9bcd75"/><path d="m670 857c-42.66 0-86.45 2.89-129 0 20.14 3.61 43.91.36 65 1s43.7.96 64-1" fill="#c9defb"/><path d="m833 1206h326c-92.38-87.66-187.26-173.2-279-262-20.27 14.02-41.14 28.93-64 38 4.63 74.93 12.5 149.05 17 224" fill="#e0e0e4"/><path d="m527 969c24.96-5.71 53.18.97 79-1s53.76 1.44 79-1c-17.61 0-36.51-.41-54 0s-35.89-1.13-53 0-35.53-3.5-51 2" fill="#7bb3fc"/><path d="m506 1206h280c-5.17-68.38-10.95-136.61-16-205-14.85 3.62-27.68 7.43-43 10-15.32 2.58-31.62 4.37-48 4s-35.71.13-52 0-36.48-.02-52 0-33.87-3.66-42.92 9.08-25.29 9.63-26.08 25.92.37 35.15 0 52 .19 34.92 0 52 .14 34.86 0 52" fill="#9cce76"/><path d="m459 1206h1c.7-20.14-.94-40.93 0-61s-1.8-41.17 0-61-3.94-40.65 0-60c-6.17 17.8 1.2 40.54-1 60s1.15 41.12 0 61c-1.14 19.88.86 41.01 0 61" fill="#d1e5fe"/><path d="m84 1206h218c.27-16.86-.35-34.19 0-51s-.68-34.36 0-51-1.46-34.78 0-51-11.09-19.68-22-28c-35.23 27.48-73.7 51.45-107.75 81.25s-60.56 65.35-88.25 99.75" fill="#9cce76"/><path d="m348 1206h1c-1.05-29.91 1.4-60.13 0-90s2.69-60.24 0-90c0 0-.99.06-1 0 4.07 59.72-3.05 120.21 0 180" fill="#95befd"/><path d="m349 1206h1c-.02-8.64.03-17.37 0-26s.06-17.4 0-26 .13-17.47 0-26c-.13-8.52.29-17.64 0-26s.64-18.02 0-26 1.42-18.86 0-26 3.77-19.39-1-24c2.69 29.76-1.4 60.13 0 90s-1.05 60.09 0 90" fill="#0061fc"/><circle cx="406.915" cy="897.743" fill="#fff" r="54.966"/></svg>